<?xml version="1.0" encoding="UTF-8"?>
<svg xmlns="http://www.w3.org/2000/svg" xmlns:xlink="http://www.w3.org/1999/xlink"   viewBox="0 0 192 192" version="1.1">
<g>
<path fill="#0062AD" d="M 112.15625 24.90625 C 109.958333 25.828125 106.411458 30.369792 104.421875 34.765625 C 102.223958 39.447917 101.583333 42.567708 101.583333 48.458333 C 101.583333 52.927083 101.723958 54.135417 102.364583 56.546875 C 106.052083 69.458333 117.614583 82.296875 130.526042 87.760417 C 138.260417 91.09375 145.494792 91.447917 153.369792 88.895833 C 159.895833 86.838542 166.635417 81.802083 167.276042 78.609375 C 168.692708 70.807292 160.677083 56.546875 147.411458 43.421875 C 141.947917 38.098958 138.541667 35.265625 133.4375 31.786458 C 124.427083 25.828125 116.130208 23.130208 112.15625 24.90625 Z M 129.609375 37.744792 C 133.229167 39.588542 137.838542 43.276042 143.229167 48.598958 C 150.677083 56.046875 155.005208 62.291667 155.432292 66.119792 C 155.572917 68.25 155.078125 68.817708 152.880208 68.604167 C 149.119792 68.177083 142.880208 63.78125 135.5 56.401042 C 130.177083 51.010417 126.489583 46.46875 124.645833 42.78125 C 123.369792 40.296875 122.942708 37.671875 123.651042 36.822917 C 124.291667 35.973958 126.984375 36.395833 129.609375 37.744792 Z M 129.609375 37.744792 " transform="matrix(0.75,0,0,0.75,0,0)"/>
<path fill="#0062AD" d="M 86.119792 65.34375 C 80.302083 69.458333 75.192708 73.291667 74.697917 73.927083 C 73.421875 75.557292 73.28125 79.53125 74.34375 83.078125 C 77.817708 94.640625 90.447917 108.760417 102.932292 114.932292 C 107.614583 117.270833 110.3125 118.125 113.432292 118.125 C 117.333333 118.052083 117.760417 117.770833 123.578125 109.46875 C 126.484375 105.427083 129.890625 100.598958 131.166667 98.828125 C 132.442708 96.984375 133.578125 95.421875 133.578125 95.28125 C 133.578125 95.208333 132.442708 94.713542 131.026042 94.286458 C 123.505208 91.875 114 85.276042 108.041667 78.395833 C 103.572917 73.21875 99.458333 66.333333 97.473958 60.520833 L 96.552083 57.895833 L 86.125 65.34375 Z M 86.119792 65.34375 " transform="matrix(0.75,0,0,0.75,0,0)"/>
<path fill="#0062AD" d="M 53.135417 69.317708 C 47.104167 70.239583 41.359375 72.651042 36.536458 76.338542 C 29.9375 81.302083 27.666667 85.84375 27.666667 94.145833 C 27.666667 101.098958 29.369792 107.484375 33.484375 115.927083 C 44.692708 138.697917 69.09375 159.0625 90.447917 163.598958 C 94.067708 164.307292 100.734375 164.447917 103.432292 163.739583 C 107.052083 162.890625 110.098958 161.114583 112.65625 158.5625 C 117.765625 153.385417 120.958333 147.140625 122.234375 139.90625 C 123.083333 135.223958 122.875 127.776042 121.880208 122.666667 L 121.739583 121.744792 L 119.609375 122.807292 C 111.807292 126.78125 97.901042 121.390625 84.989583 109.1875 C 79.3125 103.796875 73.427083 95.921875 70.661458 89.817708 C 67.255208 82.369792 66.828125 75.557292 69.526042 71.229167 L 70.166667 70.09375 L 67.96875 69.666667 C 65.130208 69.171875 55.838542 68.958333 53.140625 69.3125 Z M 53.135417 69.317708 " transform="matrix(0.75,0,0,0.75,0,0)"/>
<path fill="#b7b7b7" d="M 31.567708 151.822917 C 25.677083 158.5625 16.171875 169.557292 10.427083 176.15625 C 0.848958 187.083333 0 188.21875 0 189.348958 C 0 191.192708 1.630208 192.46875 3.265625 191.833333 C 3.692708 191.692708 10.5 185.875 18.447917 178.994792 C 26.390625 172.114583 36.963542 162.890625 41.927083 158.5625 C 46.963542 154.234375 51.364583 150.40625 51.71875 150.119792 C 52.286458 149.552083 52 149.270833 47.322917 144.515625 C 44.557292 141.75 42.359375 139.552083 42.286458 139.552083 C 42.286458 139.552083 37.463542 145.083333 31.572917 151.822917 Z M 31.567708 151.822917 " transform="matrix(0.75,0,0,0.75,0,0)"/>
</g>
</svg>
