<?xml version="1.0" encoding="UTF-8"?>
<svg xmlns="http://www.w3.org/2000/svg" xmlns:xlink="http://www.w3.org/1999/xlink"   viewBox="0 0 192 192" version="1.1">
<g>
<path fill="#0062AD" d="M 156.435004 44.717809 C 154.233782 45.639845 150.688008 50.180985 148.705293 54.576902 C 146.506066 59.257752 145.866464 62.378997 145.867542 68.271194 C 145.868038 72.738991 146.010794 73.949351 146.64685 76.35616 C 150.335875 89.266126 161.897316 102.105245 174.811334 107.569298 C 182.543053 110.902547 189.779848 111.257238 197.654297 108.706742 C 204.180629 106.649685 210.922445 101.610561 211.560552 98.418491 C 212.981416 90.613396 204.964304 76.357377 191.697041 63.232929 C 186.236402 57.914467 182.831278 55.076638 177.724301 51.597198 C 168.715309 45.636661 160.416845 42.943515 156.44144 44.714226 Z M 173.887216 57.560859 C 177.505343 59.403344 182.118873 63.094283 187.508688 68.414241 C 194.95656 75.863558 199.28267 82.104515 199.708259 85.935201 C 199.848992 88.065593 199.353004 88.628365 197.154328 88.419321 C 193.392977 87.992782 187.150506 83.594347 179.773528 76.219368 C 174.453043 70.82709 170.763064 66.288967 168.9225 62.596932 C 167.646792 60.116303 167.220152 57.487524 167.927643 56.638391 C 168.565736 55.785744 171.260396 56.211825 173.887216 57.560859 Z M 173.887216 57.560859 " transform="matrix(0.72133,-0.205383,0.205383,0.72133,-22.619382,29.958782)"/>
<path fill="#0062AD" d="M 130.402676 85.155607 C 124.584341 89.271713 119.475442 93.102435 118.979522 93.741042 C 117.703268 95.370501 117.561663 99.348364 118.625864 102.895162 C 122.1019 114.461048 134.729051 128.578367 147.21446 134.74893 C 151.898302 137.089807 154.590489 137.942996 157.716155 137.939431 C 161.618708 137.870055 162.04126 137.584218 167.860073 129.28219 C 170.766713 125.235987 174.174874 120.417389 175.449564 118.64127 C 176.727768 116.795753 177.860285 115.233674 177.862303 115.09345 C 177.860808 115.022625 176.729277 114.527155 175.307349 114.10063 C 167.789665 111.689363 158.280726 105.088266 152.322162 98.209211 C 147.850361 93.031501 143.739723 86.1479 141.751991 80.329055 L 140.831001 77.705735 Z M 130.402676 85.155607 " transform="matrix(0.72133,-0.205383,0.205383,0.72133,-22.619382,29.958782)"/>
<path fill="#0062AD" d="M 97.413277 89.127639 C 91.383842 90.048157 85.638359 92.462928 80.813353 96.152454 C 74.216701 101.119188 71.943658 105.659884 71.947644 113.95732 C 71.94969 120.9112 73.652483 127.29334 77.763112 135.736556 C 88.97089 158.509602 113.374537 178.871818 134.729664 183.408863 C 138.345328 184.118841 145.015314 184.257992 147.71252 183.552991 C 151.328193 182.703354 154.378557 180.929194 156.936002 178.375675 C 162.044388 173.196387 165.235907 166.951439 166.51063 159.716667 C 167.36129 155.03633 167.149172 147.583994 166.155806 142.476086 L 166.012596 141.552609 L 163.88519 142.614801 C 156.08215 146.588201 142.178771 141.194445 129.265768 128.993997 C 123.592584 123.604187 117.70179 115.726344 114.938287 109.627047 C 111.534686 102.181197 111.108523 95.366496 113.803142 91.037895 L 114.440262 89.903374 L 112.243536 89.478271 C 109.407157 88.979347 100.114377 88.770329 97.414703 89.12263 Z M 97.413277 89.127639 " transform="matrix(0.72133,-0.205383,0.205383,0.72133,-22.619382,29.958782)"/>
<path fill="#b7b7b7" d="M 75.848461 171.636641 C 69.960259 178.37554 60.455911 189.370191 54.709951 195.970884 C 45.133282 206.896205 44.280103 208.028777 44.28114 209.166294 C 44.280677 211.012793 45.910136 212.289048 47.543572 211.649404 C 47.969115 211.505217 54.780336 205.689799 62.723096 198.810236 C 70.665856 191.930673 81.236363 182.707145 86.204588 178.381481 C 91.243639 174.054321 95.638546 170.220672 95.995283 169.937756 C 96.563523 169.368479 96.280676 169.087577 91.596779 164.331442 C 88.831308 161.567434 86.631531 159.36523 86.560706 159.366726 C 86.560706 159.366726 81.736663 164.897742 75.847035 171.64165 Z M 75.848461 171.636641 " transform="matrix(0.72133,-0.205383,0.205383,0.72133,-22.619382,29.958782)"/>
</g>
</svg>
